<svg xmlns="http://www.w3.org/2000/svg" viewBox="0 0 100 100">
  <defs>
    <linearGradient id="grad1" x1="0%" y1="0%" x2="100%" y2="100%">
      <stop offset="0%" style="stop-color:#3B82F6;stop-opacity:1" />
      <stop offset="100%" style="stop-color:#1D4ED8;stop-opacity:1" />
    </linearGradient>
  </defs>
  
  <!-- Background circle -->
  <circle cx="50" cy="50" r="48" fill="url(#grad1)"/>
  
  <!-- Newspaper icon -->
  <g transform="translate(25, 25)">
    <!-- Main newspaper body -->
    <rect x="5" y="8" width="40" height="44" rx="2" fill="white" opacity="0.95"/>
    
    <!-- Header line (thick) -->
    <rect x="10" y="13" width="30" height="3" rx="1" fill="#1E40AF"/>
    
    <!-- Content lines -->
    <rect x="10" y="20" width="18" height="2" rx="1" fill="#64748B"/>
    <rect x="30" y="20" width="10" height="2" rx="1" fill="#64748B"/>
    
    <rect x="10" y="25" width="15" height="2" rx="1" fill="#94A3B8"/>
    <rect x="27" y="25" width="13" height="2" rx="1" fill="#94A3B8"/>
    
    <rect x="10" y="30" width="30" height="2" rx="1" fill="#CBD5E1"/>
    <rect x="10" y="34" width="25" height="2" rx="1" fill="#CBD5E1"/>
    
    <!-- Article blocks -->
    <rect x="10" y="40" width="12" height="8" rx="1" fill="#DBEAFE"/>
    <rect x="24" y="40" width="16" height="8" rx="1" fill="#DBEAFE"/>
  </g>
  
  <!-- AI sparkle (top right) -->
  <circle cx="75" cy="25" r="8" fill="#FBBF24" opacity="0.9"/>
  <path d="M75 20 L76 23 L79 24 L76 25 L75 28 L74 25 L71 24 L74 23 Z" fill="white"/>
</svg>
